<?xml version="1.0" encoding="UTF-8" standalone="no"?>
<svg
   xmlns:dc="http://purl.org/dc/elements/1.1/"
   xmlns:cc="http://creativecommons.org/ns#"
   xmlns:rdf="http://www.w3.org/1999/02/22-rdf-syntax-ns#"
   xmlns:svg="http://www.w3.org/2000/svg"
   xmlns="http://www.w3.org/2000/svg"
   xmlns:xlink="http://www.w3.org/1999/xlink"
   height="825.99994"
   width="1539.0001"
   y="0px"
   x="0px"
   xml:space="preserve"
   version="1.1"
   viewBox="0 0 1539.0001 825.99994"
   id="waves.fw-Page%201"><metadata
   id="metadata38"><rdf:RDF><cc:Work
       rdf:about=""><dc:format>image/svg+xml</dc:format><dc:type
         rdf:resource="http://purl.org/dc/dcmitype/StillImage" /></cc:Work></rdf:RDF></metadata>
	<defs
   id="defs22">
		<linearGradient
   gradientUnits="userSpaceOnUse"
   gradientTransform="scale(2.3089531,0.43309671)"
   y2="864.82617"
   x2="646.46438"
   y1="792.83913"
   x1="312.49996"
   id="gradient1">
			<stop
   id="stop2"
   offset="0%"
   stop-opacity="0"
   stop-color="#ffffff" />
			<stop
   id="stop4"
   offset="100%"
   stop-opacity="1"
   stop-color="#ffffff" />
		</linearGradient>
		<linearGradient
   gradientUnits="userSpaceOnUse"
   gradientTransform="scale(2.3586137,0.42397786)"
   y2="1304.1889"
   x2="632.853"
   y1="1233.7169"
   x1="305.92024"
   id="gradient2">
			<stop
   id="stop7"
   offset="0%"
   stop-opacity="0"
   stop-color="#ffffff" />
			<stop
   id="stop9"
   offset="100%"
   stop-opacity="1"
   stop-color="#ffffff" />
		</linearGradient>
		<linearGradient
   gradientUnits="userSpaceOnUse"
   gradientTransform="scale(2.3089545,0.43309645)"
   y2="420.06577"
   x2="655.98631"
   y1="348.07804"
   x1="322.02178"
   id="gradient3">
			<stop
   id="stop12"
   offset="0%"
   stop-opacity="0"
   stop-color="#ffffff" />
			<stop
   id="stop14"
   offset="100%"
   stop-opacity="1"
   stop-color="#ffffff" />
		</linearGradient>
		<linearGradient
   gradientUnits="userSpaceOnUse"
   gradientTransform="scale(2.3586146,0.4239777)"
   y2="5.5394989"
   x2="642.17454"
   y1="-64.932533"
   x1="315.24162"
   id="gradient4">
			<stop
   id="stop17"
   offset="0%"
   stop-opacity="0"
   stop-color="#ffffff" />
			<stop
   id="stop19"
   offset="100%"
   stop-opacity="1"
   stop-color="#ffffff" />
		</linearGradient>
	</defs>
	<g
   transform="translate(22,171.99999)"
   id="Layer%201">
		<image
   xlink:href="/srv/www/vhosts/git_exclude/save/queued/1/e/d/1ed35242-03b2-4f5e-9dbe-b291fac5f3cf/waves3.svg.images/image1.png"
   x="0"
   y="0"
   width="1500"
   height="480"
   id="image24" />
		<path
   style="opacity:0.2;fill:url(#gradient1)"
   id="path26"
   d="m -22,423.1197 c 9.4151,2.4306 19.4203,4.2351 29.9757,5.1596 79.4451,6.9576 189.0199,-24.3633 294.9468,-15.0862 105.9269,9.2769 208.2058,59.152 287.6509,66.1097 72.6856,6.3658 127.117,-32.7788 135.8537,-39.486 l -0.004,0.0702 c 0,0 57.6403,-47.4102 137.0855,-40.4523 79.445,6.9577 181.7239,56.8327 287.6508,66.1097 105.9271,9.2771 215.5018,-22.0439 294.947,-15.0862 21.1829,1.8553 40.1508,7.2443 56.5785,14.1532 l 7.3892,-210.4015 c -13.6932,-4.8052 -28.8938,-8.4148 -45.4474,-9.8646 -79.445,-6.9577 -189.0198,24.3633 -294.9467,15.0862 -105.927,-9.277 -208.2059,-59.1519 -287.6509,-66.1096 -72.6858,-6.366 -127.1168,32.7785 -135.8535,39.4856 l 0.004,-0.0699 c 0,0 -57.6403,47.4102 -137.0855,40.4523 C 529.6487,266.2322 427.3698,216.3571 321.443,207.0802 215.516,197.803 105.9413,229.124 26.4961,222.1664 11.6574,220.8668 -2.0943,217.833 -14.6474,213.7571 Z" />
		<path
   style="visibility:hidden;opacity:0.2;fill:url(#gradient2)"
   id="path28"
   d="m -22,599.4897 c 9.4151,2.3293 19.4203,4.0586 29.9757,4.9446 79.4451,6.6678 189.0199,-23.3481 294.9468,-14.4576 105.9268,8.8904 208.2057,56.6874 287.6508,63.3551 72.6856,6.1006 127.117,-31.413 135.8537,-37.8407 l -0.004,0.0672 c 0,0 57.6404,-45.4347 137.0855,-38.7667 79.445,6.6678 181.724,54.4647 287.6509,63.3551 105.927,8.8906 215.5017,-21.1253 294.9469,-14.4576 21.1828,1.778 40.1507,6.9425 56.5784,13.5635 l 7.3892,-201.6348 c -13.6931,-4.605 -28.8938,-8.0642 -45.4474,-9.4536 -79.4449,-6.6677 -189.0198,23.3482 -294.9466,14.4577 -105.9269,-8.8905 -208.2058,-56.6873 -287.6509,-63.3551 -72.6857,-6.1007 -127.1167,31.4128 -135.8535,37.8404 l 0.004,-0.067 c 0,0 -57.6403,45.4347 -137.0855,38.7668 C 529.6489,449.1392 427.37,401.3423 321.4432,392.4518 215.5163,383.5612 105.9415,413.5772 26.4964,406.9094 11.6577,405.664 -2.094,402.7567 -14.6471,398.8505 Z"
   visibility="hidden" />
		<path
   style="opacity:0.2;fill:url(#gradient3)"
   id="path30"
   d="m -15.075,225.9325 c 13.586,4.7334 28.6482,8.2868 45.0363,9.7221 79.4451,6.9577 189.0199,-24.3633 294.9468,-15.0862 105.9269,9.277 208.2058,59.152 287.6509,66.1097 72.6857,6.3658 127.117,-32.7787 135.8537,-39.486 l -0.004,0.0702 c 0,0 57.6404,-47.4102 137.0855,-40.4523 79.4451,6.9577 181.724,56.8327 287.6509,66.1097 105.927,9.2772 215.5019,-22.0438 294.947,-15.0861 15.001,1.3137 28.8907,4.403 41.5547,8.5465 l 7.3536,-209.394 c -9.5351,-2.4846 -19.6784,-4.3275 -30.388,-5.2655 -79.445,-6.9576 -189.0199,24.3633 -294.9467,15.0862 C 1085.7384,57.5298 983.4595,7.6549 904.0144,0.6973 831.3287,-5.6687 776.8977,33.4757 768.1609,40.1828 l 0.004,-0.0699 c 0,0 -57.6403,47.4102 -137.0855,40.4524 C 551.6343,73.6075 449.3553,23.7325 343.4285,14.4555 237.5016,5.1784 127.9268,36.4993 48.4817,29.5417 27.4747,27.7019 8.6463,22.3834 -7.6869,15.557 Z" />
		<path
   style="visibility:hidden;opacity:0.2;fill:url(#gradient4)"
   id="path32"
   d="m -15.075,44.5186 c 13.586,4.5362 28.6482,7.9416 45.0363,9.3171 79.4451,6.6677 189.0199,-23.3482 294.9468,-14.4576 105.9268,8.8904 208.2057,56.6873 287.6508,63.3551 72.6857,6.1006 127.1169,-31.413 135.8536,-37.8407 l -0.004,0.0672 c 0,0 57.6404,-45.4348 137.0855,-38.7667 79.445,6.6677 181.724,54.4646 287.6507,63.3551 105.927,8.8906 215.502,-21.1254 294.9471,-14.4576 15.0009,1.259 28.8907,4.2196 41.5546,8.1904 l 7.3537,-200.6692 c -9.5352,-2.3811 -19.6785,-4.1472 -30.3881,-5.0461 -79.4449,-6.6678 -189.0199,23.3482 -294.9466,14.4576 -105.9269,-8.8904 -208.2058,-56.6872 -287.6509,-63.355 -72.6857,-6.1007 -127.1167,31.4127 -135.8535,37.8404 l 0.004,-0.0671 c 0,0 -57.6403,45.4348 -137.0855,38.7669 -79.4451,-6.6679 -181.724,-54.4648 -287.6508,-63.3552 -105.9269,-8.8906 -215.5017,21.1253 -294.9468,14.4576 -21.007,-1.7632 -39.8354,-6.8601 -56.1686,-13.402 z"
   visibility="hidden" />
	</g>
</svg>