<?xml version="1.0" standalone="no"?>
<!-- Generator: Adobe Fireworks 10, Export SVG Extension by Aaron Beall (http://fireworks.abeall.com) . Version: 0.6.1  -->
<!DOCTYPE svg PUBLIC "-//W3C//DTD SVG 1.1//EN" "http://www.w3.org/Graphics/SVG/1.1/DTD/svg11.dtd">
<svg id="waves.fw-Page%201" viewBox="0 0 1500 480" style="background-color:#ffffff00" version="1.1"
	xmlns="http://www.w3.org/2000/svg" xmlns:xlink="http://www.w3.org/1999/xlink" xml:space="preserve"
	x="0px" y="0px" width="1500px" height="480px"
>
	<defs>
		<linearGradient id="gradient1" x1="48.5321%" y1="52.458%" x2="98.8631%" y2="63.307%">
			<stop stop-color="#ffffff" stop-opacity="0" offset="0%"/>
			<stop stop-color="#ffffff" stop-opacity="1" offset="100%"/>
		</linearGradient>
		<linearGradient id="gradient2" x1="48.5321%" y1="52.458%" x2="98.8631%" y2="63.3071%">
			<stop stop-color="#ffffff" stop-opacity="0" offset="0%"/>
			<stop stop-color="#ffffff" stop-opacity="1" offset="100%"/>
		</linearGradient>
		<linearGradient id="gradient3" x1="49.5151%" y1="52.458%" x2="99.8461%" y2="63.3071%">
			<stop stop-color="#ffffff" stop-opacity="0" offset="0%"/>
			<stop stop-color="#ffffff" stop-opacity="1" offset="100%"/>
		</linearGradient>
		<linearGradient id="gradient4" x1="49.5151%" y1="52.458%" x2="99.8461%" y2="63.3071%">
			<stop stop-color="#ffffff" stop-opacity="0" offset="0%"/>
			<stop stop-color="#ffffff" stop-opacity="1" offset="100%"/>
		</linearGradient>
	</defs>
	<g id="Layer%201">
		<image x="0" y="0" width="1500" height="480" xlink:href="waves3.svg.images/image1.png"/>
		<path opacity="0.2" d="M -22 423.1197 C -12.5849 425.5503 -2.5797 427.3548 7.9757 428.2793 C 87.4208 435.2369 196.9956 403.916 302.9225 413.1931 C 408.8494 422.47 511.1283 472.3451 590.5734 479.3028 C 663.259 485.6686 717.6904 446.524 726.4271 439.8168 L 726.4229 439.887 C 726.4229 439.887 784.0632 392.4768 863.5084 399.4347 C 942.9534 406.3924 1045.2323 456.2674 1151.1592 465.5444 C 1257.0863 474.8215 1366.661 443.5005 1446.1062 450.4582 C 1467.2891 452.3135 1486.257 457.7025 1502.6847 464.6114 L 1510.0739 254.2099 C 1496.3807 249.4047 1481.1801 245.7951 1464.6265 244.3453 C 1385.1815 237.3876 1275.6067 268.7086 1169.6798 259.4315 C 1063.7528 250.1545 961.4739 200.2796 882.0289 193.3219 C 809.3431 186.9559 754.9121 226.1004 746.1754 232.8075 L 746.1793 232.7376 C 746.1793 232.7376 688.539 280.1478 609.0938 273.1899 C 529.6487 266.2322 427.3698 216.3571 321.443 207.0802 C 215.516 197.803 105.9413 229.124 26.4961 222.1664 C 11.6574 220.8668 -2.0943 217.833 -14.6474 213.7571 L -22 423.1197 Z" fill="url(#gradient1)"/>
		<path opacity="0.2" visibility="hidden" d="M -22 599.4897 C -12.5849 601.819 -2.5797 603.5483 7.9757 604.4343 C 87.4208 611.1021 196.9956 581.0862 302.9225 589.9767 C 408.8493 598.8671 511.1282 646.6641 590.5733 653.3318 C 663.2589 659.4324 717.6903 621.9188 726.427 615.4911 L 726.4227 615.5583 C 726.4227 615.5583 784.0631 570.1236 863.5082 576.7916 C 942.9532 583.4594 1045.2322 631.2563 1151.1591 640.1467 C 1257.0861 649.0373 1366.6608 619.0214 1446.106 625.6891 C 1467.2888 627.4671 1486.2567 632.6316 1502.6844 639.2526 L 1510.0736 437.6178 C 1496.3805 433.0128 1481.1798 429.5536 1464.6262 428.1642 C 1385.1813 421.4965 1275.6064 451.5124 1169.6796 442.6219 C 1063.7527 433.7314 961.4738 385.9346 882.0287 379.2668 C 809.343 373.1661 754.912 410.6796 746.1752 417.1072 L 746.1792 417.0402 C 746.1792 417.0402 688.5389 462.4749 609.0937 455.807 C 529.6486 449.1392 427.3697 401.3423 321.4429 392.4518 C 215.516 383.5612 105.9412 413.5772 26.4961 406.9094 C 11.6574 405.664 -2.0943 402.7567 -14.6474 398.8505 L -22 599.4897 Z" fill="url(#gradient2)"/>
		<path opacity="0.2" d="M -15.075 225.9325 C -1.489 230.6659 13.5732 234.2193 29.9613 235.6546 C 109.4064 242.6123 218.9812 211.2913 324.9081 220.5684 C 430.835 229.8454 533.1139 279.7204 612.559 286.6781 C 685.2447 293.0439 739.676 253.8994 748.4127 247.1921 L 748.4084 247.2623 C 748.4084 247.2623 806.0488 199.8521 885.4939 206.81 C 964.939 213.7677 1067.2179 263.6427 1173.1448 272.9197 C 1279.0718 282.1969 1388.6467 250.8759 1468.0918 257.8336 C 1483.0928 259.1473 1496.9825 262.2366 1509.6465 266.3801 L 1517.0001 56.9861 C 1507.465 54.5015 1497.3217 52.6586 1486.6121 51.7206 C 1407.1671 44.763 1297.5922 76.0839 1191.6654 66.8068 C 1085.7384 57.5298 983.4595 7.6549 904.0144 0.6973 C 831.3287 -5.6687 776.8977 33.4757 768.1609 40.1828 L 768.1649 40.1129 C 768.1649 40.1129 710.5246 87.5231 631.0794 80.5653 C 551.6343 73.6075 449.3553 23.7325 343.4285 14.4555 C 237.5016 5.1784 127.9268 36.4993 48.4817 29.5417 C 27.4747 27.7019 8.6463 22.3834 -7.6869 15.557 L -15.075 225.9325 Z" fill="url(#gradient3)"/>
		<path opacity="0.2" visibility="hidden" d="M -15.075 44.5186 C -1.489 49.0548 13.5732 52.4602 29.9613 53.8357 C 109.4064 60.5034 218.9812 30.4875 324.9081 39.3781 C 430.8349 48.2685 533.1138 96.0654 612.5589 102.7332 C 685.2446 108.8338 739.6758 71.3202 748.4125 64.8925 L 748.4083 64.9597 C 748.4083 64.9597 806.0487 19.5249 885.4938 26.193 C 964.9388 32.8607 1067.2178 80.6576 1173.1445 89.5481 C 1279.0715 98.4387 1388.6465 68.4227 1468.0916 75.0905 C 1483.0925 76.3495 1496.9823 79.3101 1509.6462 83.2809 L 1516.9999 -117.3883 C 1507.4647 -119.7694 1497.3214 -121.5355 1486.6118 -122.4344 C 1407.1669 -129.1022 1297.5919 -99.0862 1191.6652 -107.9768 C 1085.7383 -116.8672 983.4594 -164.664 904.0143 -171.3318 C 831.3286 -177.4325 776.8976 -139.9191 768.1608 -133.4914 L 768.1648 -133.5585 C 768.1648 -133.5585 710.5245 -88.1237 631.0793 -94.7916 C 551.6342 -101.4595 449.3553 -149.2564 343.4285 -158.1468 C 237.5016 -167.0374 127.9268 -137.0215 48.4817 -143.6892 C 27.4747 -145.4524 8.6463 -150.5493 -7.6869 -157.0912 L -15.075 44.5186 Z" fill="url(#gradient4)"/>
	</g>
</svg>